<svg width="125" height="88" viewBox="0 0 125 88" fill="none" xmlns="http://www.w3.org/2000/svg">
<g clip-path="url(#clip0_18_3)">
<path d="M49.4141 4.25782C45.332 4.7754 42.0508 6.79688 39.8242 10.1563C37.5586 13.5742 36.9238 18.1348 38.1934 21.9238C38.7402 23.5742 39.707 25.2539 40.8203 26.5137C41.875 27.7051 61.5723 47.5781 61.8262 47.7148C62.1777 47.8906 62.8223 47.8906 63.1738 47.7051C63.4766 47.5586 83.418 27.4023 84.2969 26.3672C87.9883 22.0215 88.4766 15.8887 85.5469 10.7813C84.9121 9.67774 84.2969 8.88673 83.291 7.9004C81.5137 6.14259 79.209 4.93165 76.6797 4.42384C75.6152 4.21876 72.9395 4.18946 71.875 4.38477C69.7852 4.75587 67.6172 5.76173 65.8692 7.15821C65.6055 7.37305 64.7363 8.19337 63.9453 8.97462L62.5098 10.3906L60.9668 8.87696C59.3848 7.32423 58.4766 6.58204 57.2754 5.88868C56.1524 5.23438 54.7559 4.70704 53.418 4.44337C52.6953 4.29688 50.0684 4.1797 49.4141 4.25782Z" fill="url(#paint0_linear_18_3)"/>
</g>
<path d="M21.3638 71.45L15.1238 54.95L9.00376 71.45L3.42376 56H0.573762L8.82376 78.05L15.1238 61.73L21.4238 78.05L29.6738 56H26.8238L21.3638 71.45ZM31.8975 57.5C31.8975 57.94 32.0575 58.33 32.3775 58.67C32.7175 58.99 33.1075 59.15 33.5475 59.15C34.0075 59.15 34.3975 58.99 34.7175 58.67C35.0375 58.33 35.1975 57.94 35.1975 57.5C35.1975 57.04 35.0375 56.65 34.7175 56.33C34.3975 56.01 34.0075 55.85 33.5475 55.85C33.1075 55.85 32.7175 56.01 32.3775 56.33C32.0575 56.65 31.8975 57.04 31.8975 57.5ZM32.3475 63.2V77H34.7475V63.2H32.3475ZM37.2571 63.2V65.45H44.1571V63.2H37.2571ZM39.5071 58.4V77H41.9071V58.4H39.5071ZM48.6308 53.6H46.2308V77H48.6308V53.6ZM55.0808 68.6V77H57.4808V68.3C57.4808 67.1 57.2808 66.1 56.8808 65.3C56.5008 64.5 55.9508 63.9 55.2308 63.5C54.5308 63.1 53.7008 62.9 52.7408 62.9C51.7808 62.9 50.9308 63.15 50.1908 63.65C49.4708 64.15 48.9008 64.83 48.4808 65.69C48.0608 66.53 47.8508 67.5 47.8508 68.6H48.6308C48.6308 67.94 48.7708 67.35 49.0508 66.83C49.3508 66.31 49.7608 65.9 50.2808 65.6C50.8208 65.3 51.4408 65.15 52.1408 65.15C53.1208 65.15 53.8508 65.44 54.3308 66.02C54.8308 66.6 55.0808 67.46 55.0808 68.6ZM70.47 56V77H81.27V74.6H73.02V56H70.47ZM82.2925 70.1C82.2925 71.48 82.6025 72.72 83.2225 73.82C83.8625 74.9 84.7225 75.75 85.8025 76.37C86.8825 76.99 88.0925 77.3 89.4325 77.3C90.7925 77.3 92.0025 76.99 93.0625 76.37C94.1425 75.75 94.9925 74.9 95.6125 73.82C96.2525 72.72 96.5725 71.48 96.5725 70.1C96.5725 68.7 96.2525 67.46 95.6125 66.38C94.9925 65.3 94.1425 64.45 93.0625 63.83C92.0025 63.21 90.7925 62.9 89.4325 62.9C88.0925 62.9 86.8825 63.21 85.8025 63.83C84.7225 64.45 83.8625 65.3 83.2225 66.38C82.6025 67.46 82.2925 68.7 82.2925 70.1ZM84.7225 70.1C84.7225 69.14 84.9225 68.29 85.3225 67.55C85.7425 66.79 86.3025 66.2 87.0025 65.78C87.7225 65.36 88.5325 65.15 89.4325 65.15C90.3325 65.15 91.1325 65.36 91.8325 65.78C92.5525 66.2 93.1125 66.79 93.5125 67.55C93.9325 68.29 94.1425 69.14 94.1425 70.1C94.1425 71.06 93.9325 71.91 93.5125 72.65C93.1125 73.39 92.5525 73.98 91.8325 74.42C91.1325 74.84 90.3325 75.05 89.4325 75.05C88.5325 75.05 87.7225 74.84 87.0025 74.42C86.3025 73.98 85.7425 73.39 85.3225 72.65C84.9225 71.91 84.7225 71.06 84.7225 70.1ZM96.8467 63.2L103.447 78.05L110.047 63.2H107.347L103.447 72.95L99.5467 63.2H96.8467ZM116.877 77.3C118.357 77.3 119.637 77.01 120.717 76.43C121.817 75.83 122.727 74.95 123.447 73.79L121.497 72.56C120.997 73.4 120.387 74.03 119.667 74.45C118.947 74.85 118.117 75.05 117.177 75.05C116.237 75.05 115.437 74.85 114.777 74.45C114.117 74.05 113.617 73.47 113.277 72.71C112.937 71.95 112.767 71.03 112.767 69.95C112.787 68.89 112.967 68 113.307 67.28C113.667 66.54 114.167 65.98 114.807 65.6C115.467 65.2 116.257 65 117.177 65C117.957 65 118.637 65.17 119.217 65.51C119.797 65.85 120.247 66.32 120.567 66.92C120.907 67.52 121.077 68.23 121.077 69.05C121.077 69.19 121.047 69.37 120.987 69.59C120.927 69.79 120.867 69.94 120.807 70.04L121.767 68.66H111.867V70.7H123.657C123.657 70.66 123.657 70.57 123.657 70.43C123.677 70.27 123.687 70.12 123.687 69.98C123.687 68.52 123.427 67.26 122.907 66.2C122.387 65.14 121.637 64.33 120.657 63.77C119.697 63.19 118.537 62.9 117.177 62.9C115.817 62.9 114.617 63.2 113.577 63.8C112.557 64.4 111.757 65.24 111.177 66.32C110.617 67.4 110.337 68.66 110.337 70.1C110.337 71.52 110.607 72.77 111.147 73.85C111.707 74.93 112.477 75.78 113.457 76.4C114.457 77 115.597 77.3 116.877 77.3Z" fill="white"/>
<defs>
<linearGradient id="paint0_linear_18_3" x1="73.5" y1="38.5" x2="44.5" y2="6" gradientUnits="userSpaceOnUse">
<stop stop-color="#9B5ED5"/>
<stop offset="1" stop-color="#3A1078"/>
</linearGradient>
<clipPath id="clip0_18_3">
<rect width="50" height="50" fill="white" transform="translate(37.5)"/>
</clipPath>
</defs>
</svg>
